<?xml version="1.0" encoding="utf-8"?>
<!-- Generator: Adobe Illustrator 22.0.0, SVG Export Plug-In . SVG Version: 6.00 Build 0)  -->
<svg version="1.1" id="图层_1" xmlns="http://www.w3.org/2000/svg" xmlns:xlink="http://www.w3.org/1999/xlink" x="0px" y="0px"
	 viewBox="0 0 1142 361.4" style="enable-background:new 0 0 1142 361.4;" xml:space="preserve">
<style type="text/css">
	.st0{fill:url(#SVGID_1_);}
	.st1{fill:url(#SVGID_2_);}
	.st2{fill:url(#SVGID_3_);}
	.st3{fill:url(#SVGID_4_);}
	.st4{fill:url(#SVGID_5_);}
	.st5{fill:url(#SVGID_6_);}
	.st6{fill:url(#SVGID_7_);}
	.st7{fill:url(#SVGID_8_);}
	.st8{fill:#333333;}
	.st9{fill:url(#SVGID_9_);}
	.st10{fill:url(#SVGID_10_);}
	.st11{font-family:'MicrosoftYaHei';}
	.st12{font-size:18px;}
	.st13{font-family:'MyriadPro-Regular';}
	.st14{font-size:17px;}
	.st15{fill:none;}
</style>
<linearGradient id="SVGID_1_" gradientUnits="userSpaceOnUse" x1="61.5" y1="525.9" x2="107.5" y2="525.9" gradientTransform="matrix(1 0 0 1 0 -392)">
	<stop  offset="0" style="stop-color:#1A59A7"/>
	<stop  offset="1" style="stop-color:#29D2A0"/>
</linearGradient>
<path class="st0" d="M100.6,113.5c-4-1.7-9.8-2.6-16.1-2.6c-6.3,0-12.1,0.9-16.1,2.6c-4.6,2-6.9,4.3-6.9,7.2v26.7
	c0,2.6,2.3,5.2,6.9,6.9c4,1.7,9.8,2.6,16.1,2.6c6.3,0,12.1-0.9,16.1-2.6c4.3-1.7,6.9-4.3,6.9-6.9v-26.7
	C107.5,117.8,105.2,115.5,100.6,113.5L100.6,113.5z M98,125.3c-3.7,1.4-8.9,2-13.5,2c-4.9,0-9.8-0.6-13.5-2
	c-4.3-1.2-6.3-2.9-6.3-4.6s2.3-3.4,6.3-4.9c3.7-1.4,8.6-2,13.5-2c4.6,0,9.8,0.9,13.5,2c4,1.4,6.3,3.2,6.3,4.9
	C104.3,122.4,102.3,124.2,98,125.3L98,125.3z M98.3,133.7c-3.7,1.1-8.9,2-13.8,2s-9.8-0.9-13.8-2c-4-1.4-6.3-3.2-6.3-4.9v-3.2
	c2.9,1.1,4.9,2.6,8.1,3.2c3.7,0.9,7.8,1.4,12.1,1.4c4.3,0,8.3-0.6,12.1-1.4c3.2-0.6,5.2-2,8.1-3.2v3.4
	C104.6,130.5,102.3,132.2,98.3,133.7L98.3,133.7z M98.3,142.8c-3.7,1.1-8.9,2-13.8,2s-9.8-0.9-13.8-2s-6.3-2.9-6.3-4.9v-4.3
	c2.9,1.4,4.9,2.6,8.1,3.4c3.7,0.9,7.8,1.4,12.1,1.4c4.3,0,8.3-0.6,12.1-1.4c3.2-0.9,5.2-2,8.1-3.4v4.3
	C104.6,140,102.3,141.7,98.3,142.8L98.3,142.8z M84.5,154.1c-4.9,0-9.8-0.9-13.8-2s-6.3-2.9-6.3-4.9v-4.3c2.9,1.4,4.9,2.6,8.1,3.4
	c3.5,0.9,7.8,1.4,11.8,1.4c4.3,0,8.3-0.6,12.1-1.4c3.5-0.9,5.5-2,8.3-3.4v4.3c0,1.7-2.3,3.5-6.3,4.9
	C94.6,153.5,89.1,154.1,84.5,154.1L84.5,154.1z"/>
<linearGradient id="SVGID_2_" gradientUnits="userSpaceOnUse" x1="1036.9998" y1="525.85" x2="1081.9998" y2="525.85" gradientTransform="matrix(1 0 0 1 0 -392)">
	<stop  offset="0" style="stop-color:#1A59A7"/>
	<stop  offset="1" style="stop-color:#29D2A0"/>
</linearGradient>
<path class="st1" d="M1073.6,111.4h-28.1c-4.7,0-8.4,3.8-8.4,8.4v16.9c0,4.7,3.8,8.4,8.4,8.4h8.4c0,1.6-1.3,2.8-2.8,2.8h-1.4
	c-2.3,0-4.2,1.9-4.2,4.2s1.9,4.2,4.2,4.2h19.7c2.3,0,4.2-1.9,4.2-4.2s-1.9-4.2-4.2-4.2h-1.4c-1.6,0-2.8-1.3-2.8-2.8h8.4
	c4.7,0,8.4-3.8,8.4-8.4v-16.9C1082,115.2,1078.2,111.4,1073.6,111.4z M1067.9,150.8h1.4c0.8,0,1.4,0.6,1.4,1.4
	c0,0.8-0.6,1.4-1.4,1.4h-19.7c-0.8,0-1.4-0.6-1.4-1.4c0-0.8,0.6-1.4,1.4-1.4h1.4c3.1,0,5.6-2.5,5.6-5.6h5.6
	C1062.3,148.3,1064.8,150.8,1067.9,150.8z M1079.2,136.7c0,3.1-2.5,5.6-5.6,5.6h-28.1c-3.1,0-5.6-2.5-5.6-5.6v-16.9
	c0-3.1,2.5-5.6,5.6-5.6h28.1c3.1,0,5.6,2.5,5.6,5.6V136.7z M1073.6,117.1h-28.1c-1.6,0-2.8,1.3-2.8,2.8v16.9c0,1.6,1.3,2.8,2.8,2.8
	h28.1c1.6,0,2.8-1.3,2.8-2.8v-16.9C1076.4,118.3,1075.1,117.1,1073.6,117.1z M1073.6,136.7h-28.1v-16.9h28.1V136.7z"/>
<linearGradient id="SVGID_3_" gradientUnits="userSpaceOnUse" x1="87" y1="424.9" x2="1058" y2="424.9" gradientTransform="matrix(1 0 0 1 0 -392)">
	<stop  offset="0" style="stop-color:#1A59A7"/>
	<stop  offset="1" style="stop-color:#29D2A0"/>
</linearGradient>
<path class="st2" d="M1056,57.4v-47H685v-2h373v49H1056z M459,10.4H89v47h-2v-49h372V10.4z"/>
<g>
	<g>
		
			<linearGradient id="SVGID_4_" gradientUnits="userSpaceOnUse" x1="525.5" y1="579.9" x2="690.5" y2="579.9" gradientTransform="matrix(1 0 0 1 -525.5 -430.5)">
			<stop  offset="0" style="stop-color:#1A59A7"/>
			<stop  offset="1" style="stop-color:#29D2A0"/>
		</linearGradient>
		<path class="st3" d="M0,78.4v142h165v-142C165,78.4,0,78.4,0,78.4z M162,217.4H3v-136h159V217.4z"/>
	</g>
</g>
<g>
	<g>
		
			<linearGradient id="SVGID_5_" gradientUnits="userSpaceOnUse" x1="525.5" y1="579.9" x2="690.5" y2="579.9" gradientTransform="matrix(1 0 0 1 -35.5 -430.5)">
			<stop  offset="0" style="stop-color:#1A59A7"/>
			<stop  offset="1" style="stop-color:#29D2A0"/>
		</linearGradient>
		<path class="st4" d="M490,78.4v142h165v-142C655,78.4,490,78.4,490,78.4z M652,217.4H493v-136h159V217.4z"/>
	</g>
</g>
<g>
	<g>
		
			<linearGradient id="SVGID_6_" gradientUnits="userSpaceOnUse" x1="525.5" y1="579.9" x2="690.5" y2="579.9" gradientTransform="matrix(1 0 0 1 450.5 -430.5)">
			<stop  offset="0" style="stop-color:#1A59A7"/>
			<stop  offset="1" style="stop-color:#29D2A0"/>
		</linearGradient>
		<path class="st5" d="M976,78.4v142h165v-142C1141,78.4,976,78.4,976,78.4z M1138,217.4H979v-136h159V217.4z"/>
	</g>
</g>
<g>
	<g>
		
			<linearGradient id="SVGID_7_" gradientUnits="userSpaceOnUse" x1="505.5" y1="579.55" x2="709.5" y2="579.55" gradientTransform="matrix(1 0 0 1 -278 -431)">
			<stop  offset="0" style="stop-color:#1A59A7"/>
			<stop  offset="1" style="stop-color:#29D2A0"/>
		</linearGradient>
		<path class="st6" d="M431.5,139.9c0-0.3-0.1-0.5-0.3-0.7l-16-16l-1.4,1.4l14.3,14.3H227.5v2h203
			C431.1,140.9,431.5,140.5,431.5,139.9z M228.5,155.9c-0.6,0-1,0.5-1,1c0,0.3,0.1,0.5,0.3,0.7l16,16.3l1.4-1.4L230.9,158h200.6v-2
			L228.5,155.9L228.5,155.9z"/>
	</g>
</g>
<g>
	<g>
		
			<linearGradient id="SVGID_8_" gradientUnits="userSpaceOnUse" x1="505.5" y1="579.55" x2="709.5" y2="579.55" gradientTransform="matrix(1 0 0 1 210 -431)">
			<stop  offset="0" style="stop-color:#1A59A7"/>
			<stop  offset="1" style="stop-color:#29D2A0"/>
		</linearGradient>
		<path class="st7" d="M919.5,139.9c0-0.3-0.1-0.5-0.3-0.7l-16-16l-1.4,1.4l14.3,14.3H715.5v2h203
			C919.1,140.9,919.5,140.5,919.5,139.9z M716.5,155.9c-0.6,0-1,0.5-1,1c0,0.3,0.1,0.5,0.3,0.7l16,16.3l1.4-1.4L718.9,158h200.6v-2
			L716.5,155.9L716.5,155.9z"/>
	</g>
</g>
<path class="st8" d="M546.3,180.3h-7v13.6h1.8v-6h4.9v-1.5h-5v-4.6h5.3V180.3z"/>
<path class="st8" d="M548.3,186.6c1-0.8,2-1.2,3.2-1.2c1.3,0,2,0.8,2,2.4l-2.9,0.4c-2.2,0.3-3.2,1.4-3.2,3.2c0,0.9,0.3,1.6,0.8,2.1
	c0.6,0.5,1.3,0.8,2.3,0.8c1.3,0,2.3-0.6,3-1.7l0,0v1.5h1.7v-6.3c0-2.5-1.2-3.7-3.5-3.7c-1.3,0-2.4,0.3-3.3,0.9L548.3,186.6
	L548.3,186.6z M553.4,189.1v0.9c0,0.8-0.2,1.5-0.7,2s-1.1,0.8-1.9,0.8c-0.5,0-1-0.1-1.3-0.4c-0.3-0.3-0.5-0.7-0.5-1.1
	c0-0.5,0.2-0.9,0.5-1.2s0.9-0.5,1.6-0.6L553.4,189.1z"/>
<path class="st8" d="M563.3,184.2c-0.2-0.1-0.5-0.1-0.9-0.1c-1.2,0-2.1,0.7-2.5,2.1l0,0v-2H558v9.7h1.7V189c0-1,0.2-1.8,0.7-2.5
	c0.4-0.6,1-0.9,1.7-0.9c0.5,0,0.9,0.1,1.2,0.3L563.3,184.2L563.3,184.2z"/>
<path class="st8" d="M579,187.9c0-2.6-1.1-4-3.2-4c-1.4,0-2.5,0.7-3.2,2c-0.2-0.6-0.5-1.1-1-1.5s-1.1-0.5-1.7-0.5
	c-1.3,0-2.3,0.6-3,1.8l0,0v-1.5H565v9.7h1.7v-5.5c0-0.9,0.2-1.6,0.6-2.2c0.4-0.6,1-0.8,1.6-0.8c1.4,0,2.1,0.9,2.1,2.8v5.8h1.7v-5.5
	c0-0.8,0.2-1.5,0.7-2.1s1-0.9,1.6-0.9c0.8,0,1.3,0.2,1.6,0.7s0.5,1.2,0.5,2.3v5.6h1.7v-6.2L579,187.9L579,187.9z"/>
<path class="st8" d="M590,188.6c0-1.5-0.4-2.6-1.1-3.4c-0.7-0.8-1.7-1.2-3-1.2s-2.4,0.5-3.2,1.5c-0.9,1-1.3,2.2-1.3,3.7
	c0,1.6,0.4,2.8,1.2,3.7s1.9,1.3,3.3,1.3c1.4,0,2.5-0.3,3.4-0.9v-1.5c-0.9,0.7-1.9,1-3,1c-1,0-1.7-0.3-2.3-0.8
	c-0.5-0.6-0.8-1.4-0.9-2.4h6.8L590,188.6L590,188.6z M583.2,188.1c0.1-0.8,0.4-1.5,0.9-2s1.1-0.8,1.8-0.8s1.3,0.2,1.7,0.7
	s0.6,1.2,0.6,2h-5V188.1z"/>
<path class="st8" d="M597.3,184.2c-0.2-0.1-0.5-0.1-0.9-0.1c-1.2,0-2.1,0.7-2.5,2.1l0,0v-2H592v9.7h1.7V189c0-1,0.2-1.8,0.7-2.5
	c0.4-0.6,1-0.9,1.7-0.9c0.5,0,0.9,0.1,1.2,0.3L597.3,184.2L597.3,184.2z"/>
<path class="st8" d="M598.5,193.6c0.7,0.4,1.6,0.6,2.6,0.6c1.2,0,2.1-0.3,2.8-0.8s1.1-1.2,1.1-2.1c0-0.6-0.2-1.2-0.6-1.6
	c-0.4-0.4-1.1-0.9-2.2-1.3c-0.9-0.3-1.4-0.6-1.7-0.8c-0.2-0.2-0.4-0.5-0.4-0.9s0.2-0.7,0.5-0.9s0.8-0.4,1.3-0.4
	c0.9,0,1.7,0.2,2.5,0.7v-1.7c-0.7-0.3-1.5-0.4-2.3-0.4c-1.1,0-2,0.3-2.7,0.8s-1.1,1.2-1.1,2.1c0,0.6,0.2,1.1,0.5,1.5s1,0.9,2.1,1.3
	c0.9,0.3,1.5,0.6,1.8,0.9c0.3,0.2,0.4,0.6,0.4,0.9c0,0.9-0.7,1.3-2,1.3c-1,0-1.9-0.3-2.8-0.9v1.7L598.5,193.6L598.5,193.6z"/>
<linearGradient id="SVGID_9_" gradientUnits="userSpaceOnUse" x1="550.5" y1="528.35" x2="595.5" y2="528.35" gradientTransform="matrix(1 0 0 1 0 -392)">
	<stop  offset="0" style="stop-color:#1A59A7"/>
	<stop  offset="1" style="stop-color:#29D2A0"/>
</linearGradient>
<path class="st9" d="M551.9,134l14.5-8.6c0.6-0.2,1-0.7,1-1.3v-4.5c0-3.1,2.5-5.6,5.6-5.6s5.6,2.5,5.6,5.6v4.5c0,0.6,0.4,1.2,1,1.3
	l14.5,8.6c0.8,0.5,1.4,1.4,1.4,2.4v2.8c0,0.8-0.4,1.6-1,2.2c-0.5,0.4-1.1,0.6-1.8,0.6c-0.2,0-0.4,0-0.6-0.1l-13.5-2.7v7.2
	c0,0.6,0.4,1.2,1,1.3l0,0l0,0c0.1,0,0.2,0,0.3,0.1l5.6,2.8c1,0.5,1.6,1.5,1.6,2.5v2.8c0,1.6-1.3,2.8-2.8,2.8l-11.2-2.8l-11.3,2.8
	c-1.6,0-2.8-1.3-2.8-2.8v-2.8c0-1.1,0.6-2,1.6-2.5l5.6-2.8c0.1,0,0.2,0,0.3-0.1l0,0l0,0c0.6-0.2,1-0.7,1-1.3v-7.2l-13.5,2.7
	c-0.2,0-0.4,0.1-0.6,0.1c-0.6,0-1.3-0.2-1.8-0.6c-0.7-0.5-1-1.3-1-2.2v-2.8C550.5,135.4,551,134.5,551.9,134z M553.3,139.2l14.1-2.8
	l0,0c0.4,0,0.7,0.1,1.1,0.2c0.3,0.1,0.6,0.3,0.9,0.6c0.3,0.3,0.5,0.6,0.6,0.9c0.1,0.3,0.2,0.7,0.2,1.1v8.4c0,0.4-0.1,0.7-0.2,1.1
	c-0.1,0.3-0.3,0.6-0.6,0.9c-0.3,0.3-7.6,3.6-7.6,3.6v2.8l11.3-2.8l11.2,2.8v-2.8c0,0-7.3-3.4-7.6-3.6c-0.3-0.3-0.5-0.6-0.6-0.9
	c-0.1-0.3-0.2-0.7-0.2-1.1v-8.4c0-0.4,0.1-0.7,0.2-1.1s0.3-0.6,0.6-0.9c0.3-0.3,0.6-0.5,0.9-0.6c0.3-0.1,0.7-0.2,1.1-0.2l0,0l0,0
	l14.1,2.8v-2.8c0,0-15.8-9-16.1-9.3s-0.5-0.6-0.6-0.9s-0.2-0.7-0.2-1.1v-5.6c0-1.6-1.3-2.8-2.8-2.8c-1.6,0-2.8,1.3-2.8,2.8v5.6
	c0,0.4-0.1,0.7-0.2,1.1c-0.1,0.3-0.3,0.6-0.6,0.9s-16.1,9.3-16.1,9.3v2.8H553.3z"/>
<g>
	<g>
		
			<linearGradient id="SVGID_10_" gradientUnits="userSpaceOnUse" x1="2" y1="707.4" x2="1142" y2="707.4" gradientTransform="matrix(1 0 0 1 0 -392)">
			<stop  offset="0" style="stop-color:#1A59A7"/>
			<stop  offset="1" style="stop-color:#29D2A0"/>
		</linearGradient>
		<path class="st10" d="M2,269.4v92h1140v-92H2z M1139,358.4H5v-86h1134V358.4z"/>
	</g>
</g>
<text transform="matrix(1 0 0 1 487 15.4336)" class="st8 st11 st12">Space management</text>
<text transform="matrix(1 0 0 1 234 131.4336)" class="st8 st11 st12">Transmission service</text>
<text transform="matrix(1 0 0 1 772 131.4336)" class="st8 st11 st12">Object query</text>
<text transform="matrix(1 0 0 1 454 322.4336)" class="st8 st11 st12">Employment, Service, Wallet</text>
<text transform="matrix(1 0 0 1 32 188.4336)" class="st8 st11 st12">Landowners</text>
<text transform="matrix(1 0 0 1 1010.4922 184.1201)" class="st13 st14">Smart contract</text>
<text transform="matrix(1 0 0 1 1032.4922 204.5201)" class="st13 st14">      processors</text>
<polygon class="st15" points="1011,196 1042,196 1042,196 "/>
</svg>
