<?xml version="1.0" encoding="utf-8"?>
<!-- Generator: Adobe Illustrator 22.0.0, SVG Export Plug-In . SVG Version: 6.00 Build 0)  -->
<svg version="1.1" id="图层_1" xmlns="http://www.w3.org/2000/svg" xmlns:xlink="http://www.w3.org/1999/xlink" x="0px" y="0px"
	 viewBox="0 0 23.9 23.9" style="enable-background:new 0 0 23.9 23.9;" xml:space="preserve">
<style type="text/css">
	.st0{fill:#222222;}
</style>
<g>
	<g>
		<path class="st0" d="M8,13.1H2.9c-1.6,0-2.9,1.3-2.9,2.9v5.1c0,1.6,1.3,2.9,2.9,2.9H8c1.6,0,2.9-1.3,2.9-2.9v-5.1
			C10.9,14.4,9.6,13.1,8,13.1z M10,21.1c0,1.1-0.9,2-2,2H2.9c-1.1,0-2-0.9-2-2v-5.1c0-1.1,0.9-2,2-2H8c1.1,0,2,0.9,2,2V21.1z M8,0.7
			H2.9C1.3,0.7,0,2,0,3.6v5.1c0,1.6,1.3,2.9,2.9,2.9H8c1.6,0,2.9-1.3,2.9-2.9V3.6C10.9,1.9,9.6,0.7,8,0.7z M10,8.6c0,1.1-0.9,2-2,2
			H2.9c-1.1,0-2-0.9-2-2V3.4c0-1.1,0.9-2,2-2H8c1.1,0,2,0.9,2,2V8.6z M20.5,13.1h-5.1c-1.6,0-2.9,1.3-2.9,2.9v5.1
			c0,1.6,1.3,2.9,2.9,2.9h5.1c1.6,0,2.9-1.3,2.9-2.9v-5.1C23.4,14.4,22.1,13.1,20.5,13.1z M22.5,21.1c0,1.1-0.9,2-2,2h-5.1
			c-1.1,0-2-0.9-2-2v-5.1c0-1.1,0.9-2,2-2h5.1c1.1,0,2,0.9,2,2V21.1z M16.1,11.2c0.5,0.5,1.2,0.8,1.9,0.8c0.7,0,1.4-0.3,1.9-0.8
			l3.3-3.3c1-1,1-2.8,0-3.8l-3.3-3.3c-1-1-2.8-1-3.8,0l-3.3,3.3c-1,1-1,2.8,0,3.8L16.1,11.2z M13.4,4.7l3.3-3.3
			c0.7-0.7,1.8-0.7,2.6,0l3.3,3.3c0.7,0.7,0.7,1.8,0,2.6l-3.3,3.3c-0.7,0.7-1.8,0.7-2.6,0l-3.3-3.3C12.6,6.6,12.6,5.4,13.4,4.7z"/>
	</g>
</g>
</svg>
