<?xml version="1.0" encoding="utf-8"?>
<!-- Generator: Adobe Illustrator 22.0.0, SVG Export Plug-In . SVG Version: 6.00 Build 0)  -->
<svg version="1.1" id="图层_1" xmlns="http://www.w3.org/2000/svg" xmlns:xlink="http://www.w3.org/1999/xlink" x="0px" y="0px"
	 viewBox="0 0 21.8 24" style="enable-background:new 0 0 21.8 24;" xml:space="preserve">
<style type="text/css">
	.st0{fill:#222222;}
</style>
<path class="st0" d="M21.8,23.4c0,0.2,0,0.4,0,0.6h-1.3c0-0.2,0-0.4,0-0.6c0-4.7-3.4-8.6-8-9.3c0.5,0.5,0.8,1.1,0.8,1.8v3.5
	c0,1.3-1.1,2.4-2.4,2.4c-1.3,0-2.4-1.1-2.4-2.4v-3.5c0-0.7,0.3-1.3,0.8-1.8c-4.6,0.7-8,4.7-8,9.3c0,0.2,0,0.4,0,0.6H0
	c0-0.2,0-0.4,0-0.6c0-4.8,3.2-8.9,7.8-10.3c-2.4-1.2-3.9-3.5-3.9-6.2C4,3.1,7.1,0,11,0s7,3.1,7.1,6.9c0,2.6-1.5,5-3.9,6.2
	C18.6,14.5,21.7,18.7,21.8,23.4L21.8,23.4z M9.6,19.4c0,0.5,0.6,0.9,0.9,1.1c0.2,0.1,0.4,0.1,0.6,0c0.4-0.2,0.9-0.6,0.9-1.1v-3.5
	c0-0.7-0.5-1.2-1.2-1.3c-0.7,0-1.2,0.5-1.2,1.2V19.4L9.6,19.4z M16.6,7c0-2.4-1.4-4.5-3.5-5.4c-2.2-0.9-4.7-0.5-6.3,1.2
	C5.1,4.4,4.6,6.9,5.5,9.1s3,3.6,5.4,3.6c1.5,0,3-0.6,4.1-1.6C16,10,16.6,8.5,16.6,7L16.6,7z"/>
</svg>
