<?xml version="1.0" encoding="utf-8"?>
<!-- Generator: Adobe Illustrator 22.0.0, SVG Export Plug-In . SVG Version: 6.00 Build 0)  -->
<svg version="1.1" id="图层_1" xmlns="http://www.w3.org/2000/svg" xmlns:xlink="http://www.w3.org/1999/xlink" x="0px" y="0px"
	 viewBox="0 0 28 27" style="enable-background:new 0 0 28 27;" xml:space="preserve">
<style type="text/css">
	.st0{fill:#222222;}
</style>
<g>
	<g>
		<path class="st0" d="M18.5,7.2c-0.5-2.3-2.5-4-4.9-4c-1.9,0-3.6,1.1-4.4,2.7c-2.1,0.3-3.6,1.9-3.6,4c0,2.2,1.8,4,4,4h8.7
			c1.9,0,3.3-1.5,3.3-3.3C21.6,8.8,20.2,7.3,18.5,7.2z M18.3,12.5H9.6c-1.5,0-2.7-1.2-2.7-2.7s1.2-2.7,2.7-2.7h0.5
			c0.5-1.5,1.9-2.7,3.5-2.7c2,0,3.7,1.7,3.7,3.7v0.3h1c1.1,0,2,0.9,2,2C20.3,11.6,19.4,12.5,18.3,12.5z M26,0H2.1C1,0,0,0.9,0,2.1
			v17.4c0,1.2,0.9,2.1,2.1,2.1h9.8v3.8H8.7c-0.4,0-0.8,0.4-0.8,0.8S8.3,27,8.7,27h10.6c0.4,0,0.8-0.4,0.8-0.8s-0.4-0.8-0.8-0.8h-3.2
			v-3.8h9.8c1.2,0,2.1-0.9,2.1-2.1V2.1C28.1,0.9,27.2,0,26,0z M14.7,25.4h-1.1v-3.8h1.1V25.4z M26.6,19.5c0,0.4-0.2,0.6-0.5,0.6H2.2
			c-0.2,0-0.3-0.1-0.4-0.2c-0.1-0.1-0.2-0.3-0.2-0.4v-1.9h25V19.5z M26.6,16.1h-25v-14c0-0.3,0.3-0.6,0.5-0.6h23.8
			c0.2,0,0.3,0.1,0.4,0.2c0.1,0.1,0.2,0.3,0.2,0.4v14H26.6z"/>
	</g>
</g>
</svg>
