<?xml version="1.0" encoding="utf-8"?>
<!-- Generator: Adobe Illustrator 22.0.0, SVG Export Plug-In . SVG Version: 6.00 Build 0)  -->
<svg version="1.1" id="图层_1" xmlns="http://www.w3.org/2000/svg" xmlns:xlink="http://www.w3.org/1999/xlink" x="0px" y="0px"
	 viewBox="0 0 24.2 24.2" style="enable-background:new 0 0 24.2 24.2;" xml:space="preserve">
<style type="text/css">
	.st0{fill:#222222;}
</style>
<g>
	<g>
		<path class="st0" d="M24.1,23.6c0-0.1,0-0.1,0-0.2l0,0l0,0l0,0L23,20.1l0,0c-0.1-0.2-0.3-0.4-0.5-0.4H22V9.9h1.6
			c0.1,0,0.3-0.1,0.4-0.2c0.1-0.1,0.2-0.2,0.2-0.4V7.1c0-0.2-0.1-0.4-0.3-0.5l0,0L12.4,0.1l0,0c-0.1,0-0.2-0.1-0.3-0.1
			s-0.2,0-0.3,0.1l0,0l0,0l0,0L0.3,6.6l0,0C0.1,6.7,0,6.9,0,7.1v2.2c0,0.1,0.1,0.3,0.2,0.4c0.1,0.1,0.2,0.2,0.4,0.2h1.6v9.8H1.7
			c-0.2,0-0.4,0.2-0.5,0.4l0,0l-1.1,3.3l0,0l0,0l0,0c0,0.1,0,0.1,0,0.2l0,0l0,0c0,0.1,0.1,0.3,0.2,0.4c0.1,0.1,0.2,0.2,0.4,0.2h22.9
			c0.1,0,0.3-0.1,0.4-0.2C24,23.8,24.1,23.7,24.1,23.6L24.1,23.6L24.1,23.6z M1.3,8.7V7.6L2,7.2l9.4-5.4l0,0l0.7-0.4l0.7,0.4
			l9.4,5.4l0,0l0.7,0.4v1.1H1.3z M20.8,9.9v9.8h-2.2V9.9H20.8z M17.6,9.9v9.8h-2.2V9.9H17.6z M14.3,9.9v9.8H9.9V9.9H14.3z M8.8,9.9
			v9.8H6.6V9.9H8.8z M5.5,9.9v9.8H3.3V9.9H5.5z M1.5,22.9l0.1-0.3L2,21.5l0,0l0.2-0.6H22l0.1,0.3l0.6,1.7H1.5z"/>
	</g>
</g>
</svg>
