<?xml version="1.0" encoding="utf-8"?>
<!-- Generator: Adobe Illustrator 22.0.0, SVG Export Plug-In . SVG Version: 6.00 Build 0)  -->
<svg version="1.1" id="图层_1" xmlns="http://www.w3.org/2000/svg" xmlns:xlink="http://www.w3.org/1999/xlink" x="0px" y="0px"
	 viewBox="0 0 193.9 28.3" style="enable-background:new 0 0 193.9 28.3;" xml:space="preserve">
<style type="text/css">
	.st0{fill:#3A4776;}
	.st1{fill:url(#SVGID_1_);}
	.st2{fill:url(#SVGID_2_);}
</style>
<g>
	<g>
		<path class="st0" d="M58.7,8.3c-1.9,0-3.5,0.3-4.7,0.8s-2.2,1.4-2.9,2.6c-1,1.6-1.5,3.7-1.5,6.3c0,2.2,0.3,4,1,5.4
			c1,2.2,2.7,3.5,5,4c0.7,0.1,1.6,0.2,2.9,0.2h6.7l0,0v-3.4l0,0h-5.8c-1.6,0-2.8-0.3-3.6-0.9c-1.1-0.9-1.6-2.8-1.6-5.6
			c0-2.1,0.4-3.6,1.1-4.4c0.8-1,2.2-1.5,4-1.5h6l0,0V8.4l0,0h-6.6V8.3z M74.3,13.3c-2.4,0-4.3,0.8-5.6,2.2c-1.2,1.3-1.7,3-1.7,4.9
			c0,2.3,0.6,4.1,1.8,5.3c1.3,1.4,3.1,2,5.5,2c2.2,0,4-0.6,5.3-1.8c1.4-1.3,2.1-3.1,2.1-5.3c0-2.1-0.6-3.8-1.7-5.2
			C78.8,14.1,76.9,13.3,74.3,13.3z M74.4,24.9c-1.3,0-2.3-0.5-2.9-1.6c-0.4-0.6-0.6-1.5-0.6-2.7c0-2.9,1.2-4.3,3.5-4.3
			s3.4,1.5,3.4,4.3S76.6,24.9,74.4,24.9z M94.4,13.8c-0.6-0.2-1.4-0.2-2.5-0.2h-7.4l0,0v14.1l0,0h3.8l0,0V16.6l0,0h3.3
			c0.7,0,1.2,0.2,1.5,0.5s0.5,0.8,0.5,1.5v9.1l0,0h3.8l0,0V19c0-1.9-0.5-3.4-1.5-4.3C95.5,14.2,95,13.9,94.4,13.8z M105.9,13.5
			L105.9,13.5V8.3l0,0h-3.8l0,0v5.2l0,0h-2.4l0,0v3l0,0h2.4l0,0v5.8c0,1.9,0.4,3.3,1.1,4.1c0.7,0.8,1.9,1.2,3.5,1.2h2.8l0,0v-3l0,0
			h-1.6c-0.8,0-1.4-0.2-1.7-0.7c-0.2-0.3-0.3-1.1-0.3-2.3v-5.1l0,0h3.5l0,0v-3l0,0L105.9,13.5L105.9,13.5z M122.5,13.9L122.5,13.9
			c-0.5-0.1-0.9-0.2-1.3-0.3c-0.4,0-1.2-0.1-2.4-0.1h-6.5l0,0v3l0,0h6.5c1.2,0,1.9,0.2,2.3,0.5s0.6,1,0.6,2l0,0H117
			c-1.5,0-2.6,0.1-3.2,0.3c-0.7,0.3-1.3,0.8-1.8,1.5c-0.4,0.7-0.7,1.6-0.7,2.5c0,1.6,0.6,2.7,1.7,3.5c0.4,0.3,0.9,0.4,1.5,0.5
			s1.6,0.1,3,0.1h8.1l0,0v-7.7C125.6,16.6,124.6,14.7,122.5,13.9z M121.6,24.6C121.6,24.6,121.6,24.6,121.6,24.6h-4.4
			c-0.8,0-1.3-0.1-1.6-0.3c-0.3-0.2-0.5-0.5-0.5-1c0-0.4,0.1-0.7,0.4-1c0.3-0.2,0.6-0.3,1-0.3h5.1l0,0V24.6z M133.9,13.5L133.9,13.5
			V8.3l0,0h-3.8l0,0v5.2l0,0h-2.4l0,0v3l0,0h2.4l0,0v5.8c0,1.9,0.4,3.3,1.1,4.1c0.7,0.8,1.9,1.2,3.5,1.2h2.8l0,0v-3l0,0h-1.6
			c-0.8,0-1.4-0.2-1.7-0.7c-0.2-0.3-0.3-1.1-0.3-2.3v-5.1l0,0h3.5l0,0v-3l0,0L133.9,13.5L133.9,13.5z M150,14.6
			c-0.4-0.4-0.9-0.7-1.6-0.8c-0.6-0.2-1.5-0.2-2.7-0.2h-5.7l0,0v14.1l0,0h3.8l0,0V16.6l0,0h1.1c1,0,1.6,0.2,2,0.6
			c0.3,0.4,0.5,1.1,0.5,2.1V20l0,0h3.7l0,0v-1.4c0-1.1-0.1-1.9-0.3-2.5C150.6,15.5,150.4,15,150,14.6z M163.9,13.9L163.9,13.9
			c-0.5-0.1-0.9-0.2-1.3-0.3c-0.4,0-1.2-0.1-2.4-0.1h-6.5l0,0v3l0,0h6.5c1.2,0,1.9,0.2,2.3,0.5s0.6,1,0.6,2l0,0h-4.7
			c-1.5,0-2.6,0.1-3.2,0.3c-0.7,0.3-1.3,0.8-1.8,1.5c-0.4,0.7-0.7,1.6-0.7,2.5c0,1.6,0.6,2.7,1.7,3.5c0.4,0.3,0.9,0.4,1.5,0.5
			s1.6,0.1,3,0.1h8.1l0,0v-7.7C167,16.6,166,14.7,163.9,13.9z M163,24.6L163,24.6h-4.4c-0.8,0-1.3-0.1-1.6-0.3s-0.5-0.5-0.5-1
			c0-0.4,0.1-0.7,0.4-1c0.3-0.2,0.6-0.3,1-0.3h5.1l0,0V24.6z M176.8,13.5c-1.3,0-2.3,0.1-3.1,0.3c-0.8,0.2-1.5,0.6-2.1,1.1
			c-1.4,1.2-2.1,3.1-2.1,5.6c0,2.1,0.6,3.8,1.8,5.2c0.6,0.7,1.4,1.2,2.2,1.5c0.8,0.3,1.9,0.4,3.3,0.4h5.2l0,0v-3l0,0h-4.1
			c-0.8,0-1.4-0.1-1.9-0.2c-0.4-0.1-0.9-0.3-1.2-0.6c-0.9-0.7-1.4-1.8-1.4-3.3c0-1.4,0.3-2.4,0.9-3c0.6-0.7,1.7-1,3.2-1h4.6l0,0v-3
			l0,0H176.8z M189.9,16.5h3.5l0,0v-3l0,0h-3.5l0,0V8.3l0,0h-3.8l0,0v5.2l0,0h-2.4l0,0v3l0,0h2.4l0,0v5.8c0,1.9,0.4,3.3,1.1,4.1
			c0.7,0.8,1.9,1.2,3.5,1.2h2.8l0,0v-3l0,0h-1.6c-0.8,0-1.4-0.2-1.7-0.7c-0.2-0.3-0.3-1.1-0.3-2.3V16.5
			C189.9,16.6,189.9,16.5,189.9,16.5z"/>
	</g>
</g>
<linearGradient id="SVGID_1_" gradientUnits="userSpaceOnUse" x1="5.35" y1="13.975" x2="32.95" y2="13.975">
	<stop  offset="0" style="stop-color:#1A59A7"/>
	<stop  offset="1" style="stop-color:#29D2A0"/>
</linearGradient>
<path class="st1" d="M19.2,0.2c-7.6,0-13.8,11-13.8,24.5c0,1.7,1.4,3.1,3.1,3.1c1.7,0,3-1.5,3-3.2c0-10,3.5-18.1,7.7-18.1
	s7.6,8.1,7.7,18.1c0,1.7,1.3,3.2,3,3.2s3.1-1.4,3.1-3.1C33,11.2,26.8,0.2,19.2,0.2z"/>
<linearGradient id="SVGID_2_" gradientUnits="userSpaceOnUse" x1="0.45" y1="16.925" x2="38.05" y2="16.925">
	<stop  offset="0" style="stop-color:#1A59A7"/>
	<stop  offset="1" style="stop-color:#29D2A0"/>
</linearGradient>
<path class="st2" d="M36.1,5.8L36.1,5.8l-5.1,4.1l-4.5,3.7l-7.3,6l0,0l-7.3-6L7.3,9.9l-5-4.1l0,0c-0.9,2.1-1.5,4.4-1.9,6.9l0,0
	l5.4,4.4l5.1,4.1l8.4,6.9l0,0l0,0l8.4-6.9l5-4.2l5.3-4.4l0,0C37.6,10.3,36.9,8,36.1,5.8z"/>
</svg>
