<?xml version="1.0" encoding="utf-8"?>
<!-- Generator: Adobe Illustrator 22.0.0, SVG Export Plug-In . SVG Version: 6.00 Build 0)  -->
<svg version="1.1" id="图层_1" xmlns="http://www.w3.org/2000/svg" xmlns:xlink="http://www.w3.org/1999/xlink" x="0px" y="0px"
	 viewBox="0 0 46 46" style="enable-background:new 0 0 46 46;" xml:space="preserve">
<style type="text/css">
	.st0{fill:url(#SVGID_1_);}
</style>
<linearGradient id="SVGID_1_" gradientUnits="userSpaceOnUse" x1="0" y1="25" x2="46" y2="25" gradientTransform="matrix(1 0 0 -1 0 48)">
	<stop  offset="0" style="stop-color:#1A59A7"/>
	<stop  offset="1" style="stop-color:#29D2A0"/>
</linearGradient>
<path class="st0" d="M39.1,2.6C35.1,0.9,29.3,0,23,0C16.7,0,10.9,0.9,6.9,2.6C2.3,4.6,0,6.9,0,9.8v26.7c0,2.6,2.3,5.2,6.9,6.9
	c4,1.7,9.8,2.6,16.1,2.6c6.3,0,12.1-0.9,16.1-2.6c4.3-1.7,6.9-4.3,6.9-6.9V9.8C46,6.9,43.7,4.6,39.1,2.6L39.1,2.6z M36.5,14.4
	c-3.7,1.4-8.9,2-13.5,2c-4.9,0-9.8-0.6-13.5-2c-4.3-1.1-6.3-2.9-6.3-4.6c0-1.7,2.3-3.4,6.3-4.9c3.7-1.4,8.6-2,13.5-2
	c4.6,0,9.8,0.9,13.5,2c4,1.4,6.3,3.2,6.3,4.9C42.8,11.5,40.8,13.2,36.5,14.4L36.5,14.4z M36.8,22.7c-3.7,1.2-8.9,2-13.8,2
	c-4.9,0-9.8-0.9-13.8-2c-4-1.4-6.3-3.2-6.3-4.9v-3.2c2.9,1.2,4.9,2.6,8.1,3.2c3.7,0.9,7.8,1.4,12.1,1.4s8.3-0.6,12.1-1.4
	c3.2-0.6,5.2-2,8.1-3.2V18C43.1,19.6,40.8,21.3,36.8,22.7L36.8,22.7z M36.8,31.9c-3.7,1.1-8.9,2-13.8,2c-4.9,0-9.8-0.9-13.8-2
	c-4-1.2-6.3-2.9-6.3-4.9v-4.3c2.9,1.4,4.9,2.6,8.1,3.5c3.7,0.9,7.8,1.4,12.1,1.4s8.3-0.6,12.1-1.4c3.2-0.9,5.2-2,8.1-3.5V27
	C43.1,29,40.8,30.8,36.8,31.9L36.8,31.9z M23,43.1c-4.9,0-9.8-0.9-13.8-2s-6.3-2.9-6.3-4.9v-4.3c2.9,1.4,4.9,2.6,8.1,3.4
	c3.5,0.9,7.8,1.4,11.8,1.4c4.3,0,8.3-0.6,12.1-1.4c3.5-0.9,5.5-2,8.3-3.4v4.3c0,1.7-2.3,3.4-6.3,4.9C33.1,42.5,27.6,43.1,23,43.1
	L23,43.1z"/>
</svg>
