<?xml version="1.0" encoding="utf-8"?>
<!-- Generator: Adobe Illustrator 22.0.0, SVG Export Plug-In . SVG Version: 6.00 Build 0)  -->
<svg version="1.1" id="图层_1" xmlns="http://www.w3.org/2000/svg" xmlns:xlink="http://www.w3.org/1999/xlink" x="0px" y="0px"
	 viewBox="0 0 44.9 44.7" style="enable-background:new 0 0 44.9 44.7;" xml:space="preserve">
<style type="text/css">
	.st0{fill:url(#SVGID_1_);}
</style>
<linearGradient id="SVGID_1_" gradientUnits="userSpaceOnUse" x1="-8.739816e-02" y1="24.45" x2="44.9126" y2="24.45" gradientTransform="matrix(1 0 0 -1 0 46.8)">
	<stop  offset="0" style="stop-color:#1A59A7"/>
	<stop  offset="1" style="stop-color:#29D2A0"/>
</linearGradient>
<path class="st0" d="M1.3,20l14.5-8.6c0.6-0.2,1-0.7,1-1.3V5.6c0-3.1,2.5-5.6,5.6-5.6S28,2.5,28,5.6v4.5c0,0.6,0.4,1.2,1,1.3
	L43.5,20c0.8,0.5,1.4,1.4,1.4,2.4v2.8c0,0.8-0.4,1.6-1,2.2c-0.5,0.4-1.1,0.6-1.8,0.6c-0.2,0-0.4,0-0.6-0.1L28,25.2v7.2
	c0,0.6,0.4,1.2,1,1.3l0,0l0,0c0.1,0,0.2,0,0.3,0.1l5.6,2.8c1,0.5,1.6,1.5,1.6,2.5v2.8c0,1.6-1.3,2.8-2.8,2.8l-11.2-2.8l-11.3,2.8
	c-1.6,0-2.8-1.3-2.8-2.8v-2.8c0-1.1,0.6-2,1.6-2.5l5.6-2.8c0.1,0,0.2,0,0.3-0.1l0,0l0,0c0.6-0.2,1-0.7,1-1.3v-7.2L3.4,27.9
	C3.2,27.9,3,28,2.8,28c-0.6,0-1.3-0.2-1.8-0.6c-0.7-0.5-1-1.3-1-2.2v-2.8C-0.1,21.4,0.4,20.5,1.3,20z M2.7,25.2l14.1-2.8l0,0
	c0.4,0,0.7,0.1,1.1,0.2c0.3,0.1,0.6,0.3,0.9,0.6c0.3,0.3,0.5,0.6,0.6,0.9c0.1,0.3,0.2,0.7,0.2,1.1v8.4c0,0.4-0.1,0.7-0.2,1.1
	c-0.1,0.3-0.3,0.6-0.6,0.9s-7.6,3.6-7.6,3.6V42l11.3-2.8L33.7,42v-2.8c0,0-7.3-3.4-7.6-3.6c-0.3-0.3-0.5-0.6-0.6-0.9
	s-0.2-0.7-0.2-1.1v-8.4c0-0.4,0.1-0.7,0.2-1.1c0.1-0.3,0.3-0.6,0.6-0.9c0.3-0.3,0.6-0.5,0.9-0.6c0.3-0.1,0.7-0.2,1.1-0.2l0,0l0,0
	l14.1,2.8v-2.8c0,0-15.8-9-16.1-9.3s-0.5-0.6-0.6-0.9c-0.1-0.3-0.2-0.7-0.2-1.1V5.5c0-1.6-1.3-2.8-2.8-2.8c-1.6,0-2.8,1.3-2.8,2.8
	v5.6c0,0.4-0.1,0.7-0.2,1.1c-0.1,0.3-0.3,0.6-0.6,0.9c-0.3,0.3-16.1,9.3-16.1,9.3L2.7,25.2L2.7,25.2z"/>
</svg>
